<svg width="102" height="80" viewBox="0 0 102 80" fill="none" xmlns="http://www.w3.org/2000/svg">
<path d="M59.4801 6.75391H12.6828C6.12894 6.75391 0.815979 12.0669 0.815979 18.6207V65.418C0.815979 71.9719 6.12894 77.2849 12.6828 77.2849H59.4801C66.034 77.2849 71.3469 71.9719 71.3469 65.418V18.6207C71.3469 12.0669 66.034 6.75391 59.4801 6.75391Z" fill="#F7F3F3"/>
<path d="M48.6449 0H23.5182C21.3563 0 19.6037 1.75257 19.6037 3.91447V10.7648C19.6037 12.9267 21.3563 14.6793 23.5182 14.6793H48.6449C50.8068 14.6793 52.5593 12.9267 52.5593 10.7648V3.91447C52.5593 1.75257 50.8068 0 48.6449 0Z" fill="#E0DEDE"/>
<path d="M66.1806 69.9302C52.4006 69.9302 41.1862 58.7158 41.1862 44.9358C41.1862 31.1558 52.4006 19.9414 66.1806 19.9414C79.9606 19.9414 91.175 31.1558 91.175 44.9358C91.175 58.7158 79.9606 69.9302 66.1806 69.9302ZM66.1806 28.7578C57.2584 28.7578 50.0026 36.0136 50.0026 44.9358C50.0026 53.858 57.2584 61.1138 66.1806 61.1138C75.1028 61.1138 82.3586 53.858 82.3586 44.9358C82.3586 36.0136 75.1028 28.7578 66.1806 28.7578Z" fill="#5436EA"/>
<path d="M96.7825 80.0002C95.654 80.0002 94.5255 79.5682 93.6615 78.713L77.5804 62.6319C75.8612 60.9127 75.8612 58.118 77.5804 56.3988C79.2996 54.6796 82.0944 54.6796 83.8136 56.3988L99.8946 72.4798C101.614 74.199 101.614 76.9938 99.8946 78.713C99.0306 79.577 97.9021 80.0002 96.7736 80.0002H96.7825Z" fill="#5436EA"/>
</svg>
