<svg width="190" height="40" viewBox="0 0 190 40" fill="none" xmlns="http://www.w3.org/2000/svg">
<circle cx="20" cy="20" r="20" fill="#BDBDBD"/>
<g clip-path="url(#clip0_163_7790)">
<path d="M30.7922 14.8425C30.5401 13.9211 29.7993 13.1943 28.8587 12.9485C27.1523 12.5 20.3125 12.5 20.3125 12.5C20.3125 12.5 13.4715 12.5 11.7663 12.9485C10.8245 13.1943 10.0837 13.92 9.83162 14.8425C9.375 16.513 9.375 20.0006 9.375 20.0006C9.375 20.0006 9.375 23.487 9.83162 25.1586C10.0837 26.0812 10.8245 26.8069 11.7663 27.0527C13.4727 27.5 20.3125 27.5 20.3125 27.5C20.3125 27.5 27.1523 27.5 28.8587 27.0527C29.7993 26.8057 30.5413 26.08 30.7922 25.1586C31.2488 23.487 31.2488 20.0006 31.2488 20.0006C31.2488 20.0006 31.2488 16.5141 30.7922 14.8425Z" fill="#333333"/>
<path d="M18.1245 23.2141L23.8085 20.0002L18.1245 16.7852V23.2141Z" fill="#BDBDBD"/>
</g>
<circle cx="70" cy="20" r="20" fill="#BDBDBD"/>
<path d="M68.8067 9.37511H74.0794C74.1533 9.373 74.2252 9.40043 74.278 9.45529C74.3287 9.50803 74.3583 9.57976 74.3562 9.65361C74.2823 14.0546 69.9373 14.7572 69.895 14.7635C69.8824 14.7656 69.8676 14.7678 69.8528 14.7678H64.2821C64.2039 14.7678 64.1299 14.734 64.0792 14.677C64.0264 14.6201 64.001 14.5441 64.0074 14.4661C64.3814 10.0566 68.7623 9.38144 68.8067 9.37511ZM78.4243 23.5087H76.2265C75.8017 25.8484 74.166 30.625 67.8747 30.625C59.5462 30.625 59.375 22.247 59.375 22.247V17.2151C59.375 17.0632 59.4976 16.9387 59.6518 16.9387H78.4243C80.2375 16.9387 81.7147 18.4114 81.7147 20.2237C81.7147 22.036 80.2397 23.5087 78.4243 23.5087ZM78.3461 18.6097C77.4649 18.6097 76.7485 19.3228 76.7485 20.2047C76.7485 21.0866 77.4628 21.7976 78.3461 21.7976C79.2295 21.7976 79.9438 21.0845 79.9438 20.2047C79.9438 19.3249 79.2295 18.6097 78.3461 18.6097Z" fill="#333333"/>
<circle cx="120" cy="20" r="20" fill="#BDBDBD"/>
<g clip-path="url(#clip1_163_7790)">
<path d="M129.018 10H111.941C109.762 10 108 11.7749 108 13.9576V23.3453C108 25.5293 109.762 27.3003 111.941 27.3003H117.825L119.832 30.5668C119.832 30.5668 119.852 30.6074 119.896 30.6608C120.014 30.8628 120.231 30.9987 120.48 30.9987C120.729 30.9987 120.943 30.8615 121.061 30.6646C121.112 30.6061 121.129 30.5655 121.129 30.5655L123.134 27.2991H129.017C131.194 27.2991 132.961 25.528 132.961 23.344V13.9576C132.961 11.7736 131.194 10 129.017 10" fill="#333333"/>
<path d="M113.544 16.8782C113.544 16.8782 112.862 16.8782 112.242 17.483V15.0576H110.716V21.4228H112.259V20.9235C112.259 20.9235 112.623 21.5829 113.543 21.5829C113.543 21.5829 115.695 21.5016 115.695 19.202C115.695 19.202 115.617 16.877 113.543 16.877M113.206 20.2362C112.664 20.2362 112.226 19.7978 112.226 19.2566C112.226 18.7154 112.664 18.2745 113.206 18.2745C113.749 18.2745 114.189 18.7128 114.189 19.2566C114.189 19.8004 113.749 20.2362 113.206 20.2362Z" fill="#BDBDBD"/>
<path d="M116.188 14.9121V16.3872C116.188 16.3872 116.883 16.3554 116.883 17.6564V21.4234H118.357V17.307C118.357 17.307 118.421 14.9121 116.188 14.9121Z" fill="#BDBDBD"/>
<path d="M121.96 16.9004C121.96 16.9004 119.434 16.9004 119.434 19.2572C119.434 19.2572 119.354 21.5847 121.96 21.5847C121.96 21.5847 124.543 21.5809 124.543 19.2572C124.543 19.2572 124.628 16.9004 121.96 16.9004ZM121.96 20.2367C121.416 20.2367 120.978 19.7984 120.978 19.2572C120.978 18.7159 121.415 18.2751 121.96 18.2751C122.505 18.2751 122.941 18.7134 122.941 19.2572C122.941 19.8009 122.503 20.2367 121.96 20.2367Z" fill="#BDBDBD"/>
<path d="M128.759 17.0485V17.4831C128.759 17.4831 128.319 16.8999 127.475 16.8999C127.475 16.8999 125.314 16.8059 125.314 19.2389C125.314 19.2389 125.291 21.5067 127.416 21.5067C127.416 21.5067 128.282 21.541 128.759 20.9236V21.2806C128.759 21.2806 128.867 22.3973 127.785 22.3973H127.416V23.7504H128.012C128.012 23.7504 130.245 23.7745 130.245 21.3644V17.0473H128.759V17.0485ZM127.846 20.2362C127.305 20.2362 126.864 19.7979 126.864 19.2567C126.864 18.7154 127.305 18.2746 127.846 18.2746C128.388 18.2746 128.827 18.7129 128.827 19.2567C128.827 19.8004 128.389 20.2362 127.846 20.2362Z" fill="#BDBDBD"/>
</g>
<mask id="mask0_163_7790" style="mask-type:luminance" maskUnits="userSpaceOnUse" x="150" y="0" width="40" height="40">
<path d="M170 40C181.046 40 190 31.0457 190 20C190 8.9543 181.046 0 170 0C158.954 0 150 8.9543 150 20C150 31.0457 158.954 40 170 40Z" fill="white"/>
</mask>
<g mask="url(#mask0_163_7790)">
<path d="M157.988 -0.387695H182.006C186.625 -0.387695 190.381 3.36228 190.381 7.98728V32.006C190.381 36.631 186.631 40.381 182.006 40.381H157.988C153.369 40.381 149.612 36.631 149.612 32.006V7.98728C149.612 3.36853 153.363 -0.387695 157.988 -0.387695Z" fill="url(#paint0_radial_163_7790)"/>
<path d="M157.988 -0.387695H182.006C186.625 -0.387695 190.381 3.36228 190.381 7.98728V32.006C190.381 36.631 186.631 40.381 182.006 40.381H157.988C153.369 40.381 149.612 36.631 149.612 32.006V7.98728C149.612 3.36853 153.363 -0.387695 157.988 -0.387695Z" fill="#BDBDBD"/>
</g>
<path d="M174.225 8.98145H165.769C162.019 8.98145 158.981 12.0189 158.981 15.7689V24.2252C158.981 27.9752 162.019 31.0127 165.769 31.0127H174.225C177.975 31.0127 181.012 27.9752 181.012 24.2252V15.7689C181.012 12.0189 177.975 8.98145 174.225 8.98145ZM178.9 23.4127C178.9 26.4439 176.444 28.9002 173.419 28.9002H166.588C163.556 28.9002 161.1 26.4439 161.1 23.4127V16.5814C161.1 13.5564 163.556 11.1002 166.588 11.1002H173.419C176.444 11.1002 178.9 13.5564 178.9 16.5814V23.4127Z" fill="#333333"/>
<path d="M170.294 14.2314C167.087 14.2314 164.487 16.8252 164.487 20.0315C164.487 23.2377 167.087 25.8315 170.294 25.8315C173.5 25.8315 176.094 23.2315 176.094 20.0315C176.094 16.8315 173.494 14.2314 170.294 14.2314ZM170.294 23.5252C168.362 23.5252 166.8 21.9627 166.8 20.0377C166.8 18.1127 168.362 16.544 170.294 16.544C172.225 16.544 173.788 18.1065 173.788 20.0377C173.788 21.969 172.225 23.5252 170.294 23.5252Z" fill="#333333"/>
<path d="M177.169 14.144C177.169 14.9565 176.506 15.619 175.694 15.619C174.881 15.619 174.219 14.9565 174.219 14.144C174.219 13.3315 174.881 12.6689 175.694 12.6689C176.506 12.6689 177.169 13.3315 177.169 14.144Z" fill="#333333"/>
<defs>
<radialGradient id="paint0_radial_163_7790" cx="0" cy="0" r="1" gradientUnits="userSpaceOnUse" gradientTransform="translate(158.669 49.656) scale(54.0189 54.0187)">
<stop offset="0.1" stop-color="#FFD879"/>
<stop offset="0.15" stop-color="#FCCB75"/>
<stop offset="0.26" stop-color="#F4AA6C"/>
<stop offset="0.4" stop-color="#E8745D"/>
<stop offset="0.45" stop-color="#E45F58"/>
<stop offset="0.68" stop-color="#D22A9C"/>
<stop offset="1" stop-color="#6968DF"/>
</radialGradient>
<clipPath id="clip0_163_7790">
<rect width="21.875" height="15" fill="white" transform="translate(9.375 12.5)"/>
</clipPath>
<clipPath id="clip1_163_7790">
<rect width="24.9627" height="21" fill="white" transform="translate(108 10)"/>
</clipPath>
</defs>
</svg>
