<svg width="109" height="50" viewBox="0 0 109 50" fill="none" xmlns="http://www.w3.org/2000/svg">
<path d="M3.97954 12.2151H10.2021C10.4915 12.2151 10.7086 11.9799 10.7086 11.7084V9.44636C10.7086 9.15682 10.4734 8.93966 10.2021 8.93966H3.97954C3.69012 8.93966 3.47305 8.70441 3.47305 8.43297V3.90888C3.47305 3.61934 3.70821 3.40218 3.97954 3.40218H10.7809C11.0704 3.40218 11.2874 3.16693 11.2874 2.89548V0.615341C11.2874 0.325799 11.0523 0.108643 10.7809 0.108643H0.506487C0.235155 0.108643 0 0.325799 0 0.615341V21.0642C0 21.3538 0.235155 21.5709 0.506487 21.5709H10.9618C11.2512 21.5709 11.4683 21.3357 11.4683 21.0642V18.8022C11.4683 18.5126 11.2332 18.2955 10.9618 18.2955H3.97954C3.69012 18.2955 3.47305 18.0602 3.47305 17.7888V12.758C3.47305 12.4685 3.70821 12.2513 3.97954 12.2513V12.2151Z" fill="#FFF4F4"/>
<path d="M27.6033 7.89008V5.04895C27.6033 1.75541 26.0838 0.108643 23.0992 0.108643H15.2848C14.9954 0.108643 14.7783 0.343895 14.7783 0.615341V21.0642C14.7783 21.3538 14.9954 21.6614 15.2848 21.5709L17.7268 20.9375C18.0162 20.8471 18.2333 20.6118 18.2333 20.3404V12.758H20.4401C20.621 12.758 20.8019 12.8666 20.8923 13.0294C20.8923 13.0294 24.3835 19.4356 25.5593 21.589C25.6497 21.7519 25.9029 21.8243 26.12 21.7519C26.4999 21.6071 28.2726 20.5213 28.2726 20.5213C28.5258 20.3766 28.5982 20.0689 28.4716 19.8156L24.691 13.138C24.5282 12.8485 24.691 12.5046 24.9985 12.3961C26.7712 11.7446 27.6214 10.2607 27.6214 7.89008H27.6033ZM18.2333 3.87268C18.2333 3.58314 18.4684 3.36599 18.7398 3.36599H22.6831C23.6961 3.36599 24.1302 3.89078 24.1302 5.12133V7.7815C24.1302 9.06634 23.678 9.53684 22.4299 9.53684H18.7398C18.4504 9.53684 18.2333 9.30159 18.2333 9.03015V3.89078V3.87268Z" fill="#FFF4F4"/>
<path d="M35.5806 0.488666L30.4796 19.8156C30.4253 20.1051 30.57 20.3947 30.8413 20.5575L33.0482 21.8062C33.3195 21.8967 33.5908 21.6976 33.6632 21.4261L35.1284 15.6534C35.1826 15.4182 35.3997 15.2734 35.6168 15.2734H40.1209C40.356 15.2734 40.555 15.4363 40.6093 15.6534L42.0745 21.4081C42.1468 21.6795 42.4001 21.8967 42.6895 21.7881L44.9144 20.4308C45.2039 20.2318 45.2943 20.0327 45.2219 19.7432L40.1571 0.488666C40.1028 0.27151 39.8857 0.108643 39.6687 0.108643H36.0871C35.8519 0.108643 35.653 0.27151 35.5987 0.488666H35.5806ZM39.0898 12.1427H36.6478C36.3222 12.1427 36.069 11.8351 36.1594 11.5093L37.3895 6.71381C37.5161 6.20711 38.2577 6.20711 38.3844 6.71381L39.5963 11.5093C39.6868 11.8351 39.4335 12.1427 39.1079 12.1427H39.0898Z" fill="#FFF4F4"/>
<path d="M55.6597 0H51.8611C48.9126 0 47.3569 1.70106 47.3569 4.94031V16.721C47.3569 19.9603 48.9126 21.6613 51.8611 21.6613H55.6597C58.6444 21.6613 60.1638 19.9965 60.1638 16.721V4.94031C60.1638 1.66486 58.6444 0 55.6597 0ZM56.7089 5.01269V16.6306C56.7089 17.8792 56.2928 18.3859 55.2617 18.3859H52.2952C51.2641 18.3859 50.83 17.8611 50.83 16.6306V5.01269C50.83 3.80023 51.2822 3.25734 52.2952 3.25734H55.2617C56.2747 3.25734 56.7089 3.78214 56.7089 5.01269Z" fill="#FFF4F4"/>
<path d="M73.3139 11.817C73.3139 12.3599 72.5722 12.5227 72.3371 12.0341L66.9647 0.235317L66.9104 0.108643H64.0343C63.7449 0.108643 63.5278 0.343895 63.5278 0.615341V21.0642C63.5278 21.3538 63.763 21.5709 64.0343 21.5709H66.404C66.6934 21.5709 66.9104 21.3357 66.9104 21.0642V9.84448C66.9104 9.30159 67.6702 9.13873 67.8872 9.62733L73.2596 21.4442L73.3139 21.5709H76.19C76.4794 21.5709 76.6965 21.3357 76.6965 21.0642V0.615341C76.6965 0.325799 76.4613 0.108643 76.19 0.108643H73.8204C73.531 0.108643 73.3139 0.343895 73.3139 0.615341V11.817Z" fill="#FFF4F4"/>
<path d="M4.08794 40.5545H10.3105C10.5999 40.5545 10.817 40.3192 10.817 40.0478V37.7857C10.817 37.4962 10.5818 37.279 10.3105 37.279H4.08794C3.79852 37.279 3.58145 37.0438 3.58145 36.7723V32.2482C3.58145 31.9587 3.81661 31.7415 4.08794 31.7415H10.8893C11.1788 31.7415 11.3958 31.5063 11.3958 31.2348V28.9909C11.3958 28.7013 11.1607 28.4842 10.8893 28.4842H0.614885C0.325464 28.4842 0.108398 28.7194 0.108398 28.9909V49.4398C0.108398 49.7293 0.343553 49.9465 0.614885 49.9465H11.0702C11.3596 49.9465 11.5767 49.7112 11.5767 49.4398V47.1777C11.5767 46.8882 11.3416 46.671 11.0702 46.671H4.08794C3.79852 46.671 3.58145 46.4358 3.58145 46.1643V41.1335C3.58145 40.844 3.81661 40.6268 4.08794 40.6268V40.5545Z" fill="#FFF4F4"/>
<path d="M23.1719 28.4293H15.3756C15.0862 28.4293 14.8691 28.6645 14.8691 28.936V49.3848C14.8691 49.6744 15.1043 49.8915 15.3756 49.8915H23.1719C26.1566 49.8915 27.676 48.2267 27.676 44.9512V33.3696C27.676 30.0941 26.1566 28.4293 23.1719 28.4293ZM18.3422 32.2114C18.3422 31.9219 18.5773 31.7047 18.8487 31.7047H22.774C23.7869 31.7047 24.2211 32.2295 24.2211 33.46V44.8608C24.2211 46.1094 23.805 46.6161 22.774 46.6161H18.8487C18.5593 46.6161 18.3422 46.3808 18.3422 46.1094V32.2295V32.2114Z" fill="#FFF4F4"/>
<path d="M40.7363 29.4787C40.4469 29.6416 40.2298 29.8768 40.2298 30.1664V44.9692C40.2298 46.2179 39.8138 46.7245 38.7827 46.7245H35.8162C34.7851 46.7245 34.351 46.1998 34.351 44.9692V30.1664C34.351 29.8768 34.0977 29.6235 33.8445 29.4787L31.5834 28.5196C31.312 28.411 30.896 28.6644 30.896 28.9539V45.0597C30.896 48.2989 32.4516 50 35.4001 50H39.1988C42.1834 50 43.7029 48.3351 43.7029 45.0597V28.9539C43.7029 28.6644 43.3049 28.411 43.0155 28.5196L40.7544 29.4787H40.7363Z" fill="#FFF4F4"/>
<path d="M57.7936 38.0561H56.5088C56.3588 38.0561 56.2373 38.1776 56.2373 38.3275V49.7101C56.2373 49.8601 56.3588 49.9816 56.5088 49.9816H57.7936C57.9435 49.9816 58.065 49.8601 58.065 49.7101V38.3275C58.065 38.1776 57.9435 38.0561 57.7936 38.0561Z" fill="#FFF4F4"/>
<path d="M52.0949 38.1285H50.0689C48.4409 38.1285 47.627 38.9972 47.627 40.7344V46.9777C47.627 48.7149 48.4409 49.5835 50.0689 49.5835H52.0949C53.7229 49.5835 54.5369 48.7149 54.5369 46.9777V40.7344C54.5369 38.9972 53.7229 38.1285 52.0949 38.1285ZM52.7099 40.8973V46.7786C52.7099 47.5567 52.4748 47.8282 51.8055 47.8282H50.3584C49.6891 47.8282 49.4539 47.5567 49.4539 46.7786V40.8973C49.4539 40.1191 49.6891 39.8477 50.3584 39.8477H51.8055C52.4748 39.8477 52.7099 40.1191 52.7099 40.8973Z" fill="#FFF4F4"/>
<path d="M61.845 47.485V44.9153C61.845 44.7705 61.9536 44.662 62.0983 44.6439L66.3672 44.2638C66.512 44.2638 66.6205 44.1372 66.6205 43.9924V38.5273C66.6205 38.3825 66.4939 38.2559 66.3492 38.2559H60.3075C60.1628 38.2559 60.0362 38.3825 60.0362 38.5273V39.6855C60.0362 39.8302 60.1628 39.9569 60.3075 39.9569H64.5222C64.6669 39.9569 64.7935 40.0836 64.7935 40.2284V42.4723C64.7935 42.6171 64.685 42.7257 64.5403 42.7438L60.2713 43.1238C60.1266 43.1238 60.0181 43.2505 60.0181 43.3952V49.2946C60.0181 49.4575 60.1447 49.5661 60.3075 49.5661L67.127 49.2042C67.2717 49.2042 67.3983 49.0775 67.3802 48.9146L67.3079 47.7383C67.3079 47.5936 67.1632 47.4669 67.0184 47.485L62.1164 47.7564C61.9536 47.7564 61.8269 47.6479 61.8269 47.485H61.845Z" fill="#FFF4F4"/>
<path d="M69.895 38.0561H68.6107C68.466 38.0561 68.3394 38.1828 68.3394 38.3275V49.7101C68.3394 49.8549 68.466 49.9816 68.6107 49.9816H69.895C70.0397 49.9816 70.1663 49.8549 70.1663 49.7101V44.7336C70.1663 44.5889 70.293 44.4622 70.4377 44.4622H71.3059C71.4506 44.4622 71.5773 44.3355 71.5773 44.1908V42.9602C71.5773 42.8154 71.4506 42.6888 71.3059 42.6888H70.4377C70.293 42.6888 70.1663 42.5621 70.1663 42.4173V38.3275C70.1663 38.1828 70.0397 38.0561 69.895 38.0561Z" fill="#FFF4F4"/>
<path d="M78.685 43.1781H80.711C82.2123 43.1781 82.9721 42.5266 82.9721 41.2599V40.1017C82.9721 38.8349 82.2123 38.1835 80.711 38.1835H74.814C73.2945 38.1835 72.5348 38.8349 72.5348 40.1017V41.2599C72.5348 42.5266 73.2945 43.1781 74.814 43.1781H76.8399V44.0829H72.2997C72.1549 44.0829 72.0283 44.2096 72.0283 44.3543V45.4763C72.0283 45.6211 72.1549 45.7477 72.2997 45.7477H83.1891C83.3338 45.7477 83.4605 45.6211 83.4605 45.4763V44.3543C83.4605 44.2096 83.3338 44.0829 83.1891 44.0829H78.6669V43.1781H78.685ZM75.1396 41.5675C74.5065 41.5675 74.398 41.3503 74.398 40.9703V40.4093C74.398 40.0293 74.5246 39.8121 75.1396 39.8121H80.4034C81.0366 39.8121 81.1632 40.0112 81.1632 40.4093V40.9703C81.1632 41.3503 81.0366 41.5675 80.4034 41.5675H75.1396Z" fill="#FFF4F4"/>
<path d="M74.2724 46.3265H72.9881C72.8434 46.3265 72.7168 46.4532 72.7168 46.598V49.7105C72.7168 49.8553 72.8434 49.982 72.9881 49.982H82.7561C82.9008 49.982 83.0274 49.8553 83.0274 49.7105V48.5343C83.0274 48.3895 82.9008 48.2628 82.7561 48.2628H74.8151C74.6704 48.2628 74.5438 48.1361 74.5438 47.9914V46.5799C74.5438 46.4351 74.4171 46.3084 74.2724 46.3084V46.3265Z" fill="#FFF4F4"/>
<path d="M95.3828 38.0561H94.1704C94.0205 38.0561 93.8989 38.1776 93.8989 38.3275V49.7101C93.8989 49.8601 94.0205 49.9816 94.1704 49.9816H95.3828C95.5327 49.9816 95.6543 49.8601 95.6543 49.7101V38.3275C95.6543 38.1776 95.5327 38.0561 95.3828 38.0561Z" fill="#FFF4F4"/>
<path d="M91.2211 42.6894H90.1177V40.7169C90.1177 38.9073 89.4665 38.111 88.0013 38.111H86.6808C85.2337 38.111 84.5645 38.9435 84.5645 40.7169V46.9601C84.5645 48.7336 85.2337 49.566 86.6808 49.566H88.0013C89.4665 49.566 90.1177 48.7698 90.1177 46.9601V44.4266H91.2211V49.4936C91.2211 49.6384 91.3478 49.7651 91.4925 49.7651H92.6863C92.831 49.7651 92.9577 49.6384 92.9577 49.4936V38.3463C92.9577 38.2015 92.831 38.0748 92.6863 38.0748H91.4925C91.3478 38.0748 91.2211 38.2015 91.2211 38.3463V42.6894ZM86.3191 40.7531C86.3191 40.0835 86.4819 39.8483 86.9522 39.8483H87.7481C88.2546 39.8483 88.3812 40.0473 88.3812 40.7531V46.9601C88.3812 47.6659 88.2365 47.865 87.7481 47.865H86.9522C86.4638 47.865 86.3191 47.6478 86.3191 46.9601V40.7531Z" fill="#FFF4F4"/>
<path d="M107.537 42.7978H99.5602C99.4155 42.7978 99.2889 42.6712 99.2889 42.5264V40.2281C99.2889 40.0834 99.4155 39.9567 99.5602 39.9567H107.429C107.574 39.9567 107.7 39.83 107.7 39.6853V38.509C107.7 38.3642 107.574 38.2375 107.429 38.2375H97.7332C97.5885 38.2375 97.4619 38.3642 97.4619 38.509V44.2274C97.4619 44.3722 97.5885 44.4989 97.7332 44.4989H107.555C107.7 44.4989 107.827 44.3722 107.827 44.2274V43.0512C107.827 42.9064 107.7 42.7797 107.555 42.7797L107.537 42.7978Z" fill="#FFF4F4"/>
<path d="M96.8828 45.6749V46.8693C96.8828 47.0141 97.0094 47.1408 97.1541 47.1408H99.0897C99.2344 47.1408 99.361 47.2674 99.361 47.4122V49.7104C99.361 49.8552 99.4876 49.9819 99.6323 49.9819H100.917C101.061 49.9819 101.188 49.8552 101.188 49.7104V47.4122C101.188 47.2674 101.315 47.1408 101.459 47.1408H103.775C103.919 47.1408 104.046 47.2674 104.046 47.4122V49.7104C104.046 49.8552 104.173 49.9819 104.317 49.9819H105.602C105.746 49.9819 105.873 49.8552 105.873 49.7104V47.4122C105.873 47.2674 106 47.1408 106.144 47.1408H108.062C108.206 47.1408 108.333 47.0141 108.333 46.8693V45.6749C108.333 45.5302 108.206 45.4035 108.062 45.4035H97.1722C97.0275 45.4035 96.9009 45.5302 96.9009 45.6749H96.8828Z" fill="#FFF4F4"/>
</svg>
